<svg id="Layer_1" data-name="Layer 1" xmlns="http://www.w3.org/2000/svg" viewBox="0 0 258.93 154.93"><defs><style>.cls-1{fill:#ed1c24;}.cls-2{fill:#f7941e;}.cls-3{fill:#231f20;}.cls-4{fill:#fff;}</style></defs><title>mastercard-logo</title><path class="cls-1" d="M421.9,297.45a78,78,0,0,0-1.31-8.2H373.15a74.36,74.36,0,0,1,2.26-8.2h42.94a78.26,78.26,0,0,0-3.29-8.2H378.7a79.26,79.26,0,0,1,4.46-8.2h27.43a77.6,77.6,0,0,0-5.9-8.2H389.06a76.4,76.4,0,0,1,7.81-8.19,76.25,76.25,0,1,0,8.07,106.62H389.07a72.94,72.94,0,0,1-5.9-8.2h27.42a79.06,79.06,0,0,0,4.46-8.2H378.71a72.7,72.7,0,0,1-3.31-8.2h43a78.5,78.5,0,0,0,2.24-8.21,77.12,77.12,0,0,0,1.73-16.4,75.54,75.54,0,0,0-.43-8.2" transform="translate(-267.4 -228.18)"/><path class="cls-2" d="M396.86,363.07a77.47,77.47,0,1,0,0-114.83,76.4,76.4,0,0,0-7.81,8.19h15.63a77.6,77.6,0,0,1,5.9,8.2H383.16a79.26,79.26,0,0,0-4.46,8.2h36.35a78.26,78.26,0,0,1,3.29,8.2H375.41a74.36,74.36,0,0,0-2.26,8.2h47.44a78,78,0,0,1,1.31,8.2,79.49,79.49,0,0,1,0,16.4,76.35,76.35,0,0,1-1.31,8.2,78.5,78.5,0,0,1-2.24,8.21h-43a72.7,72.7,0,0,0,3.31,8.2h36.35a79.06,79.06,0,0,1-4.46,8.2H383.17a72.94,72.94,0,0,0,5.9,8.2h15.87l-8.08,8.22" transform="translate(-267.4 -228.18)"/><path class="cls-3" d="M393.56,304.38c0-2.59-1.46-4.1-4-4.09a4.86,4.86,0,0,0-4.45,3.09,4.48,4.48,0,0,1,2.33-.64,3.6,3.6,0,0,1,3.9,3.27h2.12c0.05-.66.07-1.2,0.07-1.63" transform="translate(-267.4 -228.18)"/><path class="cls-3" d="M383.63,312.44a6.2,6.2,0,0,0-.08,1,7.62,7.62,0,0,0,.14,1.47h14.74c0.2-.88.38-1.68,0.51-2.45H383.63" transform="translate(-267.4 -228.18)"/><path class="cls-3" d="M389.63,326.25c-9.37,0-14.26-4.89-14.26-14.26a23.09,23.09,0,0,1,3.13-12.12c-3.11,3.42-5,8.57-5,14.59,0,9.37,5.43,14.27,14.26,14.28a29.32,29.32,0,0,0,8.58-1.3l0.37-2a28.32,28.32,0,0,1-7.09.86" transform="translate(-267.4 -228.18)"/><path class="cls-3" d="M439,294.09a9.37,9.37,0,0,0-7.89,4.41,9,9,0,0,1,5.6-1.94,15.94,15.94,0,0,1,7.48,2.12l0.54-3.28a13.8,13.8,0,0,0-5.73-1.31" transform="translate(-267.4 -228.18)"/><path class="cls-3" d="M434.36,326.36c-9,0-14.66-6.48-14.65-16.9,0-8.95,3.18-16.18,8.35-20.22a22.33,22.33,0,0,0-5.86,4.65l-1-.3-0.6,1.13a32.25,32.25,0,0,0-2.59,8.12,2.65,2.65,0,0,0-.6,0c-2,0-3.21.82-4.29,4.1a4,4,0,0,1,3-1.07c0.22,0,1,0,1.43,0a39.64,39.64,0,0,0-.43,5.92c0.05,10.41,5.91,17,14.94,17a26.08,26.08,0,0,0,7.41-1.14l0.34-2a22.32,22.32,0,0,1-5.46.65" transform="translate(-267.4 -228.18)"/><path class="cls-3" d="M401.22,325.65l4.71-29.39h-1.74l-5.11,31.86h8.38c0.14-.85.28-1.68,0.39-2.47h-6.62" transform="translate(-267.4 -228.18)"/><path class="cls-3" d="M508.1,297.67l1.43-8.73h-2l-1.12,6.83a14.13,14.13,0,0,1,1.71,1.9" transform="translate(-267.4 -228.18)"/><path class="cls-3" d="M506.11,307.41c0-4-1.57-6.24-4.46-6.24-2,0-3.71,1.24-4.85,3.34a4.62,4.62,0,0,1,2.73-.87c2.87,0,4.44,2.2,4.44,6.24a15.29,15.29,0,0,1-1.64,7.36c2.31-1.62,3.78-5.21,3.78-9.83" transform="translate(-267.4 -228.18)"/><path class="cls-3" d="M470.25,325.66L475,296.25l-1.74,0-5.11,31.86h8.38l0.41-2.47h-6.64" transform="translate(-267.4 -228.18)"/><path class="cls-3" d="M503.9,325.65l0.4-3.11a10,10,0,0,1-7.75,3.54c-6.1,0-10.13-5.26-10.12-13.23a23.62,23.62,0,0,1,5.16-15.19,14.53,14.53,0,0,0-4.57,5.2,4.64,4.64,0,0,0-.58,0c-2.22,0-3.46,1-4.63,5.25a4.64,4.64,0,0,1,3.86-2.19,28.69,28.69,0,0,0-1.53,9.44c0,8,4.18,13.23,10.28,13.24a10,10,0,0,0,7.75-3.54l-0.42,3.11h7.94l0.39-2.47H503.9" transform="translate(-267.4 -228.18)"/><polyline class="cls-3" points="7.58 97.48 13.71 60.77 11.71 60.76 5.15 99.94 13.29 99.96 13.7 97.47 7.58 97.48"/><polyline class="cls-3" points="26.51 82.55 33.83 60.77 32.23 60.77 26.46 77.99 26.51 82.55"/><polyline class="cls-3" points="32.8 97.48 37.61 67.36 34.45 76.22 30.68 99.95 39.06 99.96 39.47 97.47 32.8 97.48"/><polyline class="cls-3" points="21.17 97.47 20.46 67.54 18.54 78.94 19.04 99.96 24.76 99.95 25.63 97.47 21.17 97.47"/><path class="cls-3" d="M316.1,303.86a27.27,27.27,0,0,1,7-.9c3.53,0,5.06.65,5.33,2.32,0.6,0,1.22.11,1.85,0.18a7.37,7.37,0,0,0,.33-2.05c0-2.12-1.45-2.91-5.37-2.89a26.53,26.53,0,0,0-7,.88l-1.16.34-0.74.2,0.83-5.19c-0.59.14-1.18,0.32-1.81,0.49l-1.17,7.17,0.75-.2,1.16-.34" transform="translate(-267.4 -228.18)"/><path class="cls-3" d="M329.26,311.46a14.13,14.13,0,0,0-1.88-.12c-3.92,0-6.23,1.11-6.92,3.29a9.76,9.76,0,0,1,4.38-.84,11,11,0,0,1,1.78.15,13.83,13.83,0,0,1-.88,4.82c2-1.17,3.41-3.84,3.53-7.3" transform="translate(-267.4 -228.18)"/><path class="cls-3" d="M328.39,325.66l0.16-3.31c-2.12,2.61-4.95,3.87-8.8,3.86-4.55,0-7.64-3.54-7.65-8.71a12,12,0,0,1,1.86-6.81,10.24,10.24,0,0,0-3.66,5.81l-0.36,2.31c0,0.38-.07.76-0.06,1.16,0,5.15,3.2,8.71,7.75,8.7,3.84,0,6.66-1.25,8.5-3.86L326,328.12h7.25l0.08-.88,0.21-1.61h-5.11" transform="translate(-267.4 -228.18)"/><path class="cls-3" d="M353.13,300.61c-2.71,0-4.1.88-4.1,2.6v0.08a7.68,7.68,0,0,1,2-.21,48.05,48.05,0,0,1,6,.48l0.44-2.68c-1.57-.16-3.12-0.26-4.31-0.26" transform="translate(-267.4 -228.18)"/><path class="cls-3" d="M345.93,326.18q-1.63,0-4.63-.29c-1-.07-1.69-0.18-2.18-0.27l-1.53-.33-0.37-.07,0.67-4.35-1.92-.53-1,7.35,0.48,0.07,1.53,0.33a21.87,21.87,0,0,0,2.2.27c2,0.18,3.52.27,4.61,0.26,6,0,9.83-1.57,11.65-4.87-2.13,1.62-5.27,2.41-9.51,2.42" transform="translate(-267.4 -228.18)"/><path class="cls-3" d="M346.77,312.74c-4.43-2.1-6.39-4.85-6.39-8.87a11.49,11.49,0,0,1,1.38-5.79,9.11,9.11,0,0,0-3.26,5.54c0,0.66-.11,1.38-0.25,2.35,0,0.12,0,.24,0,0.35,0,4,2,6.8,6.37,8.89,3.39,1.59,3.91,2.06,3.91,3.52a0.25,0.25,0,0,1,0,.12,2.53,2.53,0,0,0,2.14-2.59c0-1.45-.52-1.91-3.91-3.52" transform="translate(-267.4 -228.18)"/><polyline class="cls-3" points="103.54 73.35 103.09 76.12 106.12 76.12 106.52 73.37 103.54 73.35"/><path class="cls-3" d="M366.57,326.31c-4.3,0-6.62-2.46-6.63-7a16.37,16.37,0,0,1,.26-2.85l0.5-3.12,0.39-2.51,3.23-19.28h-1.74L359,313.28l-0.17,1a10.64,10.64,0,0,1,.05,1.22,12.26,12.26,0,0,1-1,5.25c0,0.32,0,.64,0,1,0,4.52,2.35,7,6.63,7a19.93,19.93,0,0,0,6-1l0.32-2a16.82,16.82,0,0,1-4.2.54" transform="translate(-267.4 -228.18)"/><path class="cls-3" d="M448.21,303.85a27.87,27.87,0,0,1,6.95-.88c3.53,0,5.06.65,5.33,2.32,0.58,0,1.22.09,1.85,0.18a8.38,8.38,0,0,0,.33-2.07c0-2.1-1.47-2.89-5.39-2.9a27.23,27.23,0,0,0-7,.9l-1.16.32-0.76.22,0.83-5.21c-0.57.16-1.18,0.32-1.81,0.51l-1.17,7.17,0.76-.22,1.18-.34" transform="translate(-267.4 -228.18)"/><path class="cls-3" d="M461.33,311.46a14.92,14.92,0,0,0-1.88-.14c-3.9,0-6.21,1.11-6.92,3.29a10.12,10.12,0,0,1,4.4-.82,12.88,12.88,0,0,1,1.76.13,13.09,13.09,0,0,1-.88,4.84c2.06-1.18,3.43-3.84,3.53-7.3" transform="translate(-267.4 -228.18)"/><path class="cls-3" d="M460.48,325.64l0.18-3.29c-2.12,2.61-5,3.85-8.8,3.85-4.54,0-7.66-3.56-7.66-8.71a12.34,12.34,0,0,1,1.86-6.81,10.58,10.58,0,0,0-3.93,6.13l1.12-.53-1.08,6.55a7.7,7.7,0,0,0,7.56,5.83c3.84,0,6.66-1.25,8.5-3.86l-0.16,3.31h7.25l0.08-.86,0.21-1.61h-5.13" transform="translate(-267.4 -228.18)"/><path class="cls-4" d="M372.6,325.25a19.44,19.44,0,0,1-6,1.05c-4.3,0-6.62-2.46-6.63-7a16.37,16.37,0,0,1,.26-2.85l0.5-3.12,0.39-2.51,3.64-21.75h8.34l-1,4.73h4.28l-1.17,7.75h-4.28l-2.21,13.3a8.3,8.3,0,0,0-.14,1.31c0,1.66.86,2.36,2.86,2.36a6.65,6.65,0,0,0,2.26-.29l-1.11,7" transform="translate(-267.4 -228.18)"/><path class="cls-4" d="M340.38,303.87c0,4,2,6.78,6.39,8.87,3.39,1.61,3.91,2.06,3.91,3.52,0,2-1.49,2.88-4.81,2.88a23.34,23.34,0,0,1-7.5-1.27l-1.15,7.35,0.37,0.07,1.53,0.33c0.49,0.09,1.23.19,2.18,0.27q3,0.27,4.63.29c8.83,0,12.91-3.38,12.9-10.63,0-4.38-1.69-6.94-5.88-8.88-3.51-1.6-3.93-2-3.92-3.46,0-1.72,1.39-2.59,4.1-2.6a48.05,48.05,0,0,1,6,.48l1.2-7.39a61.69,61.69,0,0,0-7.39-.61c-9.35,0-12.6,4.9-12.58,10.78" transform="translate(-267.4 -228.18)"/><path class="cls-4" d="M447.81,287.69l-1.38,8.51a15.94,15.94,0,0,0-7.48-2.12c-6.26,0-10.64,6-10.66,14.68,0,5.94,3,9.54,7.83,9.54a16.36,16.36,0,0,0,7.13-2l-1.47,8.92a26.29,26.29,0,0,1-7.41,1.14c-9,0-14.66-6.48-14.65-16.9,0-14,7.76-23.81,18.89-23.81a15.21,15.21,0,0,1,3.74.4l3.45,0.87c1.06,0.37,1.27.46,2,.77" transform="translate(-267.4 -228.18)"/><path class="cls-4" d="M511.81,325.65H503.9l0.4-3.11a10,10,0,0,1-7.75,3.54c-6.1,0-10.13-5.26-10.12-13.23,0-10.6,6.23-19.54,13.65-19.53,3.25,0,5.73,1.33,8,4.36l1.83-11.19h8.28l-6.4,39.17h0Zm-12.36-7.49c3.9,0,6.64-4.44,6.66-10.76,0-4-1.57-6.24-4.46-6.24-3.8,0-6.5,4.44-6.51,10.7,0,4.18,1.46,6.28,4.31,6.3" transform="translate(-267.4 -228.18)"/><path class="cls-4" d="M398.21,325a28.18,28.18,0,0,1-8.58,1.28c-9.37,0-14.26-4.89-14.26-14.26,0-10.95,6.2-19,14.64-19,6.91,0,11.3,4.51,11.3,11.58a33.18,33.18,0,0,1-1,7.87H383.63a6.2,6.2,0,0,0-.08,1c0,3.69,2.49,5.58,7.36,5.58a19.74,19.74,0,0,0,8.7-2l-1.4,8h0Zm-4.71-19c0.05-.66.07-1.2,0.07-1.63,0-2.59-1.46-4.1-4-4.09s-4.55,2-5.32,5.7l9.23,0" transform="translate(-267.4 -228.18)"/><path class="cls-4" d="M420.89,293.53a3,3,0,0,0-.84-0.08c-2.75,0-4.32,1.39-6.89,5.17l0.74-4.84h-7.59l-5.09,31.86h8.38c3-19.49,3.79-22.83,7.81-22.84a2.65,2.65,0,0,1,.6,0,30.94,30.94,0,0,1,3.2-9.25l-0.31-.06" transform="translate(-267.4 -228.18)"/><path class="cls-4" d="M489.92,293.52a6.24,6.24,0,0,0-.84-0.08c-2.75,0-4.32,1.41-6.89,5.17l0.74-4.82h-7.59l-5.09,31.86h8.38c3-19.47,3.79-22.84,7.81-22.84a2.42,2.42,0,0,1,.58,0,30.37,30.37,0,0,1,3.2-9.25l-0.29-.08" transform="translate(-267.4 -228.18)"/><polyline class="cls-4" points="41.2 97.47 32.8 97.48 37.61 67.36 26.88 97.48 21.17 97.47 20.46 67.54 15.41 97.47 7.58 97.48 14.12 58.31 26.18 58.3 26.51 82.55 34.66 58.3 47.68 58.31 41.2 97.47"/><path class="cls-4" d="M329.26,311.46a14.13,14.13,0,0,0-1.88-.12c-4.75,0-7.15,1.62-7.16,4.83a2.94,2.94,0,0,0,3,3.27c3.43,0,5.89-3.25,6-8h0Zm6.09,14.2h-6.95l0.16-3.31c-2.12,2.61-4.95,3.87-8.8,3.86-4.55,0-7.64-3.54-7.65-8.71,0-7.76,5.42-12.27,14.71-12.28a27.71,27.71,0,0,1,3.42.24,7.37,7.37,0,0,0,.33-2.05c0-2.12-1.45-2.91-5.37-2.89a26.53,26.53,0,0,0-7,.88l-1.16.34-0.74.2,1.15-7.17a34.15,34.15,0,0,1,10-1.68c7.21,0,11,3.24,11,9.34a37.09,37.09,0,0,1-.69,6.33L336.09,320l-0.29,2-0.22,1.6-0.14,1.11-0.1.87" transform="translate(-267.4 -228.18)"/><path class="cls-4" d="M455.31,319.42a2.91,2.91,0,0,1-3-3.25c0-3.21,2.4-4.85,7.14-4.85a14.92,14.92,0,0,1,1.88.14c-0.15,4.7-2.61,8-6,8h0Zm12.21,5.37,0.16-1.11,0.21-1.63,0.3-2,1.75-11.31a36.85,36.85,0,0,0,.68-6.31c0-6.12-3.82-9.34-11-9.34a32.81,32.81,0,0,0-10,1.69l-1.17,7.17,0.76-.22,1.16-.32a27.23,27.23,0,0,1,7-.9c3.92,0,5.38.79,5.39,2.9a8.38,8.38,0,0,1-.33,2.07,27.59,27.59,0,0,0-3.42-.24c-9.31,0-14.71,4.52-14.73,12.27,0,5.15,3.12,8.7,7.66,8.71,3.84,0,6.68-1.24,8.8-3.85l-0.18,3.29h7l0.08-.86" transform="translate(-267.4 -228.18)"/></svg>