<svg id="Layer_1" data-name="Layer 1" xmlns="http://www.w3.org/2000/svg" viewBox="0 0 175.75 53.88"><defs><style>.cls-1{fill:#fff;}.cls-2{fill:#faa61a;}</style></defs><title>visa-logo-white</title><polygon class="cls-1" points="61.91 53.11 70.81 0.91 85.04 0.91 76.14 53.11 61.91 53.11"/><path class="cls-1" d="M435.87,281.25a36.75,36.75,0,0,0-12.75-2.19c-14.06,0-24,7.08-24,17.23-0.08,7.5,7.07,11.69,12.47,14.18s7.4,4.19,7.37,6.48c0,3.5-4.42,5.1-8.51,5.1A29.83,29.83,0,0,1,397,319.3l-1.83-.83-2,11.69c3.32,1.46,9.47,2.72,15.85,2.79,15,0,24.67-7,24.78-17.84,0.05-5.94-3.74-10.46-11.95-14.18-5-2.42-8-4-8-6.47,0-2.17,2.58-4.49,8.15-4.49a26.25,26.25,0,0,1,10.65,2l1.28,0.6,1.93-11.31" transform="translate(-308.13 -279.06)"/><path class="cls-1" d="M472.36,280h-11c-3.41,0-6,.93-7.45,4.33l-21.13,47.84h14.94s2.44-6.43,3-7.84l18.22,0c0.43,1.83,1.73,7.82,1.73,7.82h13.2L472.36,280m-17.55,33.65c1.18-3,5.67-14.59,5.67-14.59s1.17-3,1.89-5l1,4.5,3.29,15.07H454.81Z" transform="translate(-308.13 -279.06)"/><path class="cls-1" d="M358.11,280l-13.93,35.6-1.48-7.23C340.1,300,332,291,323,286.47l12.74,45.65,15.05,0,22.4-52.1H358.11" transform="translate(-308.13 -279.06)"/><path class="cls-2" d="M331.25,280H308.31l-0.18,1.09c17.85,4.32,29.66,14.76,34.56,27.31l-5-24c-0.86-3.31-3.36-4.29-6.45-4.41" transform="translate(-308.13 -279.06)"/></svg>